PathFileType	4	(X/Y/Z)	RBDS014\RBDS014runT25.trc
DataRate	CameraRate	NumFrames	NumMarkers	Units	OrigDataRate	OrigDataStartFrame	OrigNumFrames
150.000000	150.000000	4	33	mm	150.000000	1125	4500
Frame#	Time	L.ASIS			L.Heel.Bottom			L.Heel.Lateral			L.Heel.Top			L.Iliac.Crest			L.MT1			L.MT5			L.PSIS			L.Shank.Bottom.Lateral			L.Shank.Bottom.Medial			L.Shank.Top.Lateral			L.Shank.Top.Medial			L.Thigh.Bottom.Lateral			L.Thigh.Bottom.Medial			L.Thigh.Top.Lateral			L.Thigh.Top.Medial			R.ASIS			R.ASY			R.Heel.Bottom			R.Heel.Lateral			R.Heel.Top			R.Iliac.Crest			R.MT1			R.MT5			R.PSIS			R.Shank.Bottom.Lateral			R.Shank.Bottom.Medial			R.Shank.Top.Lateral			R.Shank.Top.Medial			R.Thigh.Bottom.Lateral			R.Thigh.Bottom.Medial			R.Thigh.Top.Lateral			R.Thigh.Top.Medial			
		X1	Y1	Z1	X2	Y2	Z2	X3	Y3	Z3	X4	Y4	Z4	X5	Y5	Z5	X6	Y6	Z6	X7	Y7	Z7	X8	Y8	Z8	X9	Y9	Z9	X10	Y10	Z10	X11	Y11	Z11	X12	Y12	Z12	X13	Y13	Z13	X14	Y14	Z14	X15	Y15	Z15	X16	Y16	Z16	X17	Y17	Z17	X18	Y18	Z18	X19	Y19	Z19	X20	Y20	Z20	X21	Y21	Z21	X22	Y22	Z22	X23	Y23	Z23	X24	Y24	Z24	X25	Y25	Z25	X26	Y26	Z26	X27	Y27	Z27	X28	Y28	Z28	X29	Y29	Z29	X30	Y30	Z30	X31	Y31	Z31	X32	Y32	Z32	X33	Y33	Z33	

1126	7.500000000000001	2108.424677336469	1117.736291840481	943.9836612781195	2184.050151956043	24.72158408176719	1044.464889311074	2202.491242562669	48.23050248615433	1001.808428081636	2179.752693210401	75.32794479617347	1039.948779662743	2035.537654846239	1189.830117832498	905.8651106719317	2400.483264021429	109.1728734716762	1089.251727874026	2372.676559068258	77.98446504501881	974.3550697053377	1934.682705346247	1147.619648945072	1009.500734676961	2219.721640298222	208.8643886811219	968.3489938241441	2176.456365404749	206.537788436923	1003.182803863156	2199.987362709416	284.8473302396323	949.6612674362276	2158.159726993617	283.4875957223867	983.8467508847313	2147.497701373162	741.5853829327052	902.2118329630956	2088.600490491953	717.0578625239991	936.9579483394132	2093.906960523182	837.3584059321453	886.9618147859683	2040.344583115432	815.6846366919226	922.8017344905217	2115.685674868151	1118.569334293167	1183.169066480317	1571.106233162749	166.4180813053914	1123.816930828424	1443.169386416827	308.9466666374832	1045.055928785013	1456.537704684533	303.0638795580086	1093.412137435239	1490.640962230658	325.0054916742	1061.512629056214	2080.300546897976	1196.402077799839	1199.038118837096	1565.800102601085	108.9337633410995	1072.601432986799	1498.740832525165	143.8939899783535	1166.137711449161	1945.111033028138	1152.777437803366	1106.795987588472	1574.942816749452	358.0926469734271	1143.694278412382	1569.526344296054	378.8173937709878	1097.060691088701	1626.350044024578	422.366050988056	1164.297393675954	1616.189682969117	442.1443470002089	1115.922966105871	1948.871069860311	721.9946719649959	1228.9789536966	1887.532999003973	739.5792212881751	1192.67410643728	1965.260000456635	829.0702418921179	1245.583990919347	1909.347404929521	846.0820597507296	1208.441462773847	
1127	7.506666666666667	2108.238175264907	1114.219155724522	943.5146592436897	2173.733283735293	23.77521156313796	1045.834245761022	2192.349557492809	47.18108695887985	1003.251508318495	2170.955183859021	74.39174215465384	1042.023633719351	2035.345535551808	1185.885908721598	905.5888846201357	2392.647808875097	101.2102139032122	1088.128485783449	2362.524422912712	72.1590221455367	973.5340821129947	1934.316476897428	1143.391649799994	1010.078853199551	2212.314271732593	204.6708909200333	969.4940697942586	2169.635190569697	203.2299440745502	1005.019646552339	2193.809190925564	280.928687438051	950.9370293487465	2152.514532021218	280.4549109257553	985.7931522085502	2146.911705812258	737.9464039209282	902.4107425881107	2088.120952922019	713.3522612835321	937.2580210942074	2093.137739594717	833.6587053404979	887.1702396957457	2039.711993185322	811.914198169566	923.1289399134162	2115.837995992411	1115.396557328191	1182.947545460129	1563.781807760188	173.6518330200464	1124.858087003313	1441.049332984728	319.8102484419132	1043.841780961136	1454.100814384075	314.1171032758322	1092.311989991312	1489.094435265793	334.3290765025318	1060.165436374192	2080.066055379305	1193.149729455262	1199.054939766732	1556.361005089933	115.5867131913726	1074.587715123121	1490.442637832517	154.4897842129708	1167.351341989994	1944.991074438223	1148.651078474495	1107.297729953901	1574.353611910371	364.2743555970491	1143.407944801461	1569.875041535399	385.2383385358261	1096.771725284214	1628.370405723608	426.3505738463646	1164.057957021713	1619.158178221868	446.5412280600955	1115.686920548733	1954.747774254773	715.8845174999761	1229.090670760259	1893.092931679855	732.235235923089	1192.664472196272	1969.193154158976	823.2425378678626	1245.277457155778	1912.843985773679	839.1941075175763	1208.262390987726	
1128	7.513333333333334	2107.990795028934	1110.371064663534	943.0812552439646	2161.417082157169	23.26301303673981	1047.093058635494	2180.371372123117	46.5184325648983	1004.64319898165	2160.397705971392	73.87832910414505	1044.055065346278	2035.088379294414	1181.647535094519	905.3257248145121	2383.070717066073	92.56171014912901	1087.347107241989	2350.675350871848	66.03062604733485	972.8982172343691	1933.799533521751	1138.748746862127	1010.760896320624	2203.965699732731	200.4410660665985	970.6839978362665	2161.728572684975	200.0751363189447	1006.700548850746	2187.035577954371	277.0009760926944	952.1493207209189	2146.141923973006	277.5900819471285	987.4868092946072	2146.39741921631	734.095707893027	902.4929223524273	2087.78634805292	709.4167333206049	937.5135492411137	2092.393496697345	829.72009521476	887.2917047404017	2039.149728922835	807.8789404135227	923.4043766028847	2115.892105827176	1111.794038568945	1182.820892167638	1557.613450752371	181.1186699016773	1125.741452438962	1439.817800735782	330.7056244126695	1043.25725660108	1452.746860729304	325.1255911259913	1091.772245826517	1488.382725549768	343.6998567349661	1059.305951163478	2079.695683328523	1189.433235759328	1199.228794240608	1547.920443939707	122.6881875546589	1076.278484535995	1483.654343066813	165.1866961169406	1168.600655290966	1944.748524955977	1143.998214110974	1107.923097908794	1574.814283874819	370.4172945139979	1143.374456502924	1571.215144382739	391.6383236608335	1096.769638276489	1631.426748468466	430.1519744100684	1164.03086200568	1623.108395973541	450.7686412140863	1115.710415086007	1960.936237024215	709.2565312041264	1229.151841100997	1899.02141797148	724.3135940184628	1192.525784140124	1973.318567918111	816.8916008509626	1244.954277297318	1916.568965598869	831.7113767520534	1207.9763602886	
1129	7.52	2107.626363264876	1106.202657892642	942.7255280373899	2147.513736576435	23.14596600052995	1048.205947567453	2166.938841487893	46.22314090871421	1005.940960570879	2148.382554522154	73.74210979800553	1045.968396101056	2034.748722115966	1177.077911104112	905.0669617301494	2371.978663239934	83.69596378561175	1086.987452745567	2337.479890018338	59.9616364980791	972.4982987289465	1933.086550360568	1133.686068949109	1011.524365061132	2194.956246247625	196.3340075142194	971.8766015261206	2152.97914973211	197.205046380208	1008.127688205387	2179.910213580107	273.1931287331097	953.227249031027	2139.254068132071	274.9917531818683	988.8049598660072	2145.875041926035	730.0660188901811	902.3924430981779	2087.545751897163	705.3034109872066	937.7140705688765	2091.600327021939	825.5798695914406	887.286834964362	2038.611154954785	803.6346742579345	923.639557309804	2115.830667326812	1107.774147386463	1182.791606326557	1552.70494214326	188.7426147650413	1126.457225775806	1439.573604884917	341.6193750549443	1043.313629008854	1452.543748248636	336.038793108686	1091.811894840963	1488.601246310374	353.1012689382426	1058.967028034409	2079.156948897459	1185.237123030183	1199.580751295877	1540.624869874524	130.1977580769268	1077.63271603414	1478.445432849443	175.8402326891143	1169.842347459062	1944.34976130463	1138.829453545467	1108.649979592245	1576.375081411459	376.4799667487703	1143.617294671564	1573.587267932124	397.9801031546926	1097.079736411295	1635.530840496955	433.7449689054457	1164.240847776022	1628.039859401189	454.8102071111329	1116.020322249971	1967.379542745186	702.2185165069294	1229.153660026906	1905.264199133416	715.9395753250107	1192.266977230945	1977.599345594046	810.113155019551	1244.629566486345	1920.494374503425	823.7415315872665	1207.603638120944	
